<svg width="19" height="19" viewBox="0 0 19 19" fill="none" xmlns="http://www.w3.org/2000/svg">
<path fill-rule="evenodd" clip-rule="evenodd" d="M12.3076 18.1926C12.3657 18.2508 12.4347 18.297 12.5106 18.3285C12.5865 18.36 12.6679 18.3762 12.7501 18.3762C12.8323 18.3762 12.9137 18.36 12.9897 18.3285C13.0656 18.297 13.1346 18.2508 13.1926 18.1926L18.1926 13.1926C18.2508 13.1345 18.297 13.0656 18.3285 12.9896C18.36 12.9137 18.3762 12.8323 18.3762 12.7501C18.3762 12.6679 18.36 12.5865 18.3285 12.5106C18.297 12.4346 18.2508 12.3657 18.1926 12.3076L15.8151 9.9301L14.7789 5.78885C14.7001 5.47352 14.5407 5.18409 14.3163 4.94895C14.0919 4.71382 13.8102 4.54105 13.4989 4.4476L0.567627 0.567604L4.44763 13.5001C4.54115 13.811 4.71381 14.0923 4.9487 14.3165C5.18359 14.5407 5.47267 14.7 5.78763 14.7789L9.92888 15.8139L12.3076 18.1926ZM10.0576 14.5576L6.09138 13.5664C5.98609 13.5401 5.88946 13.4868 5.811 13.4119C5.73253 13.3369 5.67494 13.2428 5.64388 13.1389L2.43138 2.4326L13.1401 5.6451C13.2435 5.67643 13.337 5.734 13.4115 5.81221C13.4859 5.89041 13.5389 5.98659 13.5651 6.09135L14.5576 10.0589L10.0576 14.5589V14.5576Z" fill="#313131"/>
<path fill-rule="evenodd" clip-rule="evenodd" d="M2.54012 2.465L9.00012 7.75C9.24734 7.75 9.48902 7.82331 9.69458 7.96066C9.90014 8.09801 10.0604 8.29324 10.155 8.52164C10.2496 8.75005 10.2743 9.00139 10.2261 9.24386C10.1779 9.48634 10.0588 9.70907 9.884 9.88388C9.70918 10.0587 9.48646 10.1777 9.24398 10.226C9.0015 10.2742 8.75017 10.2495 8.52176 10.1548C8.29336 10.0602 8.09813 9.90002 7.96078 9.69446C7.82343 9.4889 7.75012 9.24723 7.75012 9L2.46512 2.54L2.43262 2.4325L2.54012 2.465Z" fill="#313131"/>
</svg>
